<svg id="visual" viewBox="0 0 960 540" width="960" height="540" xmlns="http://www.w3.org/2000/svg" xmlns:xlink="http://www.w3.org/1999/xlink" version="1.1"><path d="M0 50L7.7 51C15.3 52 30.7 54 45.8 54.3C61 54.7 76 53.3 91.2 55.3C106.3 57.3 121.7 62.7 137 62.7C152.3 62.7 167.7 57.3 183 51.7C198.3 46 213.7 40 228.8 42.3C244 44.7 259 55.3 274.2 57.3C289.3 59.3 304.7 52.7 320 51.3C335.3 50 350.7 54 365.8 53.7C381 53.3 396 48.7 411.2 44.7C426.3 40.7 441.7 37.3 457 41.2C472.3 45 487.7 56 503 63C518.3 70 533.7 73 548.8 69.8C564 66.7 579 57.3 594.2 50.5C609.3 43.7 624.7 39.3 640 39.7C655.3 40 670.7 45 685.8 44.7C701 44.3 716 38.7 731.2 42C746.3 45.3 761.7 57.7 777 64.2C792.3 70.7 807.7 71.3 823 64.2C838.3 57 853.7 42 868.8 36.8C884 31.7 899 36.3 914.2 36.5C929.3 36.7 944.7 32.3 952.3 30.2L960 28L960 0L952.3 0C944.7 0 929.3 0 914.2 0C899 0 884 0 868.8 0C853.7 0 838.3 0 823 0C807.7 0 792.3 0 777 0C761.7 0 746.3 0 731.2 0C716 0 701 0 685.8 0C670.7 0 655.3 0 640 0C624.7 0 609.3 0 594.2 0C579 0 564 0 548.8 0C533.7 0 518.3 0 503 0C487.7 0 472.3 0 457 0C441.7 0 426.3 0 411.2 0C396 0 381 0 365.8 0C350.7 0 335.3 0 320 0C304.7 0 289.3 0 274.2 0C259 0 244 0 228.8 0C213.7 0 198.3 0 183 0C167.7 0 152.3 0 137 0C121.7 0 106.3 0 91.2 0C76 0 61 0 45.8 0C30.7 0 15.3 0 7.7 0L0 0Z" fill="#ffd100" stroke-linecap="round" stroke-linejoin="miter"></path></svg>